# AST/ASF file generated using VICON BodyLanguage
# -----------------------------------------------
:version 1.10
:name VICON
:units
  mass 1.0
  length 0.45
  angle deg
:documentation
   .ast/.asf automatically generated from VICON data using
   VICON BodyBuilder and BodyLanguage model FoxedUp or BRILLIANT.MOD
:root
   order TX TY TZ RX RY RZ
   axis XYZ
   position 0 0 0  
   orientation 0 0 0 
:bonedata
  begin
     id 1 
     name lhipjoint
     direction 0.729592 -0.560644 0.39163 
     length 2.81907 
     axis 0 0 0  XYZ
  end
  begin
     id 2 
     name lfemur
     direction 0.34202 -0.939693 0  
     length 5.92797  
     axis 0 0 20  XYZ
    dof rx ry rz
    limits (-160.0 20.0)
           (-70.0 70.0)
           (-60.0 70.0)
  end
  begin
     id 3 
     name ltibia
     direction 0.34202 -0.939693 0   
     length 7.88118   
     axis 0 0 20   XYZ
    dof rx
    limits (-10.0 170.0)
  end
  begin
     id 4 
     name lfoot
     direction 0.0476411 -0.130893 0.990251   
     length 1.97348   
     axis -90 7.62852e-016 20   XYZ
    dof rx rz
    limits (-45.0 90.0)
           (-70.0 20.0)
  end
  begin
     id 5 
     name ltoes
     direction 1.53635e-011 -4.21786e-011 1   
     length 0.999366   
     axis -90 7.62852e-016 20   XYZ
    dof rx
    limits (-90.0 20.0)
  end
  begin
     id 6 
     name rhipjoint
     direction -0.702143 -0.583724 0.407752   
     length 2.70761  
     axis 0 0 0  XYZ 
  end
  begin
     id 7 
     name rfemur
     direction -0.34202 -0.939693 0   
     length 5.98021   
     axis 0 0 -20   XYZ
    dof rx ry rz
    limits (-160.0 20.0)
           (-70.0 70.0)
           (-70.0 60.0)
  end
  begin
     id 8 
     name rtibia
     direction -0.34202 -0.939693 0   
     length 7.66627   
     axis 0 0 -20   XYZ
    dof rx
    limits (-10.0 170.0)
 end
 begin
     id 9 
     name rfoot
     direction -0.0516088 -0.141794 0.98855   
     length 2.01387  
     axis -90 -7.62852e-016 -20   XYZ
    dof rx rz
    limits (-45.0 90.0)
           (-20.0 70.0)
  end
  begin
     id 10 
     name rtoes
     direction -1.53568e-011 -4.21939e-011 1   
     length 1.01862   
     axis -90 -7.62852e-016 -20   XYZ
    dof rx
    limits (-90.0 20.0)
  end
  begin
     id 11 
     name lowerback
     direction -0.0436953 0.98817 -0.147007   
     length 1.83615   
     axis 0 0 0   XYZ
    dof rx ry rz
    limits (-20.0 45.0)
           (-30.0 30.0)
           (-30.0 30.0)
  end
  begin
     id 12 
     name upperback
     direction 0.0239184 0.998197 0.0550483   
     length 1.80285   
     axis 0 0 0   XYZ
    dof rx ry rz
    limits (-20.0 45.0)
           (-30.0 30.0)
           (-30.0 30.0)
  end
  begin
     id 13 
     name thorax
     direction 0.0460768 0.990713 0.127927   
     length 1.87059   
     axis 0 0 0   XYZ
    dof rx ry rz
    limits (-20.0 45.0)
           (-30.0 30.0)
           (-30.0 30.0)
  end
  begin
     id 14 
     name lowerneck
     direction -0.0234223 0.997727 0.0631897   
     length 1.79511   
     axis 0 0 0   XYZ
    dof rx ry rz
    limits (-20.0 45.0)
           (-30.0 30.0)
           (-30.0 30.0)
  end
  begin
     id 15 
     name upperneck
     direction 0.0345303 0.984409 -0.172474   
     length 1.80359   
     axis 0 0 0   XYZ
    dof rx ry rz
    limits (-20.0 45.0)
           (-30.0 30.0)
           (-30.0 30.0)
  end
  begin
     id 16
     name head
     direction 0.00973222 0.9978 -0.0655778  
     length 1.81938  
     axis 0 0 0   XYZ
    dof rx ry rz
    limits (-20.0 45.0)
           (-30.0 30.0)
           (-30.0 30.0)
  end
  begin
     id 17 
     name lclavicle
     direction 0.971201 0.212597 -0.10757  
     length 3.74698  
     axis 0 0 0   XYZ
    dof ry rz
    limits (-20.0 10.0)
           (0.0 20.0)
  end
  begin
     id 18 
     name lhumerus
     direction 1 -4.4896e-011 1.42684e-027   
     length 4.83799   
     axis 180 -30 -90   XYZ
    dof rx ry rz
    limits (-60.0 90.0)
           (-90.0 90.0)
           (-90.0 90.0)
  end
  begin
     id 19
     name lradius
     direction 1 -4.48978e-011 1.53407e-026   
     length 2.68259   
     axis 180 -30 -90   XYZ
    dof rx
    limits (-10.0 170.0)
  end
  begin
     id 20
     name lwrist
     direction 1 -4.48982e-011 3.34345e-026   
     length 1.34129   
     axis -2.22354e-014 90 90   XYZ
    dof ry
    limits (-180.0 0.0)
 end
  begin
     id 21 
     name lhand
     direction 1 -4.48992e-011 6.6869e-026   
     length 0.724765   
     axis -4.26681e-014 90 90   XYZ
    dof rx rz
    limits (-90.0 90.0)
           (-45.0 45.0)
  end
  begin
     id 22 
     name lfingers
     direction 1 -4.48965e-011 1.33738e-025   
     length 0.584325   
     axis -8.53362e-014 90 90   XYZ
    dof rx
    limits (0.0 90.0)
  end
  begin
     id 23
     name lthumb
     direction 0.707107 -6.34915e-011 0.707107   
     length 0.838977   
     axis -90 45 2.85299e-015   XYZ
    dof rx rz
    limits (-45.0 45.0)
           (-45.0 45.0)
  end
  begin
     id 24 
     name rclavicle
     direction -0.987829 0.146084 -0.0534135   
     length 3.83678  
     axis 0 0 0   XYZ 
    dof ry rz
    limits (-10.0 20.0)
           (-20.0 0.0)
  end
  begin
     id 25 
     name rhumerus
     direction -1 -4.48963e-011 -3.4086e-018  
     length 4.61639   
     axis 180 30 90   XYZ
    dof rx ry rz
    limits (-90.0 60.0)
           (-90.0 90.0)
           (-90.0 90.0)
  end
  begin
     id 26 
     name rradius
     direction -1 -4.48983e-011 1.36226e-026   
     length 2.86915   
     axis 180 30 90   XYZ
    dof rx
    limits (-10.0 170.0)
  end
  begin
     id 27 
     name rwrist
     direction -1 -4.48927e-011 3.34345e-026   
     length 1.43458   
     axis -2.22354e-014 -90 -90   XYZ
    dof ry
    limits (-180.0 0.0)
  end
  begin
     id 28
     name rhand
     direction -1 -4.49071e-011 6.6869e-026   
     length 0.726007   
     axis -4.26681e-014 -90 -90   XYZ
    dof rx rz
    limits (-90.0 90.0)
           (-45.0 45.0)
  end
  begin
     id 29
     name rfingers
     direction -1 -4.48886e-011 1.33738e-025   
     length 0.585326   
     axis -8.53362e-014 -90 -90   XYZ
    dof rx
    limits (0.0 90.0)
  end
  begin
     id 30
     name rthumb
     direction -0.707107 -6.34932e-011 0.707107   
     length 0.840414   
     axis -90 -45 -2.85299e-015   XYZ
    dof rx rz
    limits (-45.0 45.0)
           (-45.0 45.0)
  end
:hierarchy
  begin
    root lhipjoint rhipjoint lowerback
    lhipjoint lfemur
    lfemur ltibia
    ltibia lfoot
    lfoot ltoes
    rhipjoint rfemur
    rfemur rtibia
    rtibia rfoot
    rfoot rtoes
    lowerback upperback
    upperback thorax
    thorax lowerneck lclavicle rclavicle
    lowerneck upperneck
    upperneck head
    lclavicle lhumerus
    lhumerus lradius
    lradius lwrist
    lwrist lhand lthumb
    lhand lfingers
    rclavicle rhumerus
    rhumerus rradius
    rradius rwrist
    rwrist rhand rthumb
    rhand rfingers
  end

#!OML:ASF F:\VICON\USERDATA\INSTALL\rory3\rory3.ASF
:FULLY-SPECIFIED
:DEGREES
1
root -2.61775 16.1768 -27.894 3.66037 1.81611 0.15035
lowerback 12.4917 1.21645 -5.00738
upperback -4.93521 0.954399 1.69592
thorax -12.6208 0.948163 4.4871
lowerneck -6.72083 -6.13359 -5.07631
upperneck 15.8858 -8.36365 3.91014
head 6.30517 -4.06717 1.42912
rclavicle 5.889e-015 1.78906e-014
rhumerus -32.1074 0.112356 -85.4597
rradius 22.8126
rwrist 11.6928
rhand -11.8363 23.8675
rfingers 7.12502
rthumb 14.2148 -5.62605
lclavicle 5.889e-015 1.78906e-014
lhumerus -42.3735 7.0082 84.09
lradius 22.1001
lwrist -1.10471
lhand -5.68046 18.7772
lfingers 7.12502
lthumb 20.1395 47.7533
rfemur 19.2755 11.9487 26.357
rtibia -3.81667e-014
rfoot -13.6481 -8.03225
rtoes 14.1755
lfemur -33.4702 -19.9206 -11.0849
ltibia 27.6789
lfoot -5.59251 10.0504
ltoes 31.8734
2
root -2.58461 16.1788 -27.7823 3.645 1.75133 0.331909
lowerback 12.6208 1.41964 -5.13696
upperback -4.7116 1.1769 1.484
thorax -12.4668 1.04227 4.27141
lowerneck -8.32925 -6.41538 -4.5328
upperneck 16.4047 -8.73423 3.64552
head 6.7312 -4.20446 1.16645
rclavicle -2.40685e-014 -8.54774e-015
rhumerus -31.8591 -0.729369 -85.3963
rradius 22.7999
rwrist 11.7103
rhand -11.6339 23.272
rfingers 7.12502
rthumb 14.4098 -6.20782
lclavicle -2.40685e-014 -8.54774e-015
lhumerus -41.9275 6.46509 84.1994
lradius 21.8527
lwrist -1.41631
lhand -6.16353 17.494
lfingers 7.12502
lthumb 19.6751 46.5183
rfemur 19.7373 12.0069 26.1438
rtibia 2.54444e-014
rfoot -13.4171 -8.09106
rtoes 13.0958
lfemur -33.2235 -19.4613 -11.6745
ltibia 28.1862
lfoot -5.76809 9.65519
ltoes 33.0755
3
root -2.52037 16.1526 -27.6319 2.71959 2.97819 0.657733
lowerback 12.7536 0.916187 -4.85902
upperback -4.33402 0.533067 1.37473
thorax -12.0263 0.689209 4.1402
lowerneck -8.175 -6.32779 -4.7392
upperneck 16.3762 -8.60559 3.74254
head 6.70329 -4.14999 1.24729
rclavicle -2.00959e-015 -1.68967e-014
rhumerus -32.0424 -0.393913 -85.5997
rradius 22.8888
rwrist 11.2744
rhand -11.677 22.0186
rfingers 7.12502
rthumb 14.3682 -7.46417
lclavicle -2.00959e-015 -1.68967e-014
lhumerus -42.0643 6.58487 84.1957
lradius 21.4431
lwrist -1.53059
lhand -6.80938 16.7565
lfingers 7.12502
lthumb 19.0541 45.8432
rfemur 21.5161 10.6962 25.9571
rtibia 6.04305e-014
rfoot -13.6732 -7.97512
rtoes 12.5124
lfemur -32.0206 -20.2324 -12.8339
ltibia 28.5042
lfoot -5.80984 9.01707
ltoes 34.3289
4
root -2.50206 16.1522 -27.5658 3.01311 3.70249 0.778134
lowerback 12.6893 0.56396 -5.08171
upperback -4.59238 0.0271092 1.45175
thorax -12.2291 0.483046 4.47128
lowerneck -7.19746 -6.16241 -4.99294
upperneck 16.1001 -8.38362 3.80187
head 6.44865 -4.07123 1.36196
rclavicle 9.25591e-015 -4.96962e-015
rhumerus -32.3238 -3.25584 -83.7484
rradius 19.7184
rwrist 17.7908
rhand -15.4947 29.755
rfingers 7.12502
rthumb 10.6876 0.0468453
lclavicle 9.25591e-015 -4.96962e-015
lhumerus -42.7285 6.67066 84.1934
lradius 21.5066
lwrist -1.33445
lhand -6.8028 16.9608
lfingers 7.12502
lthumb 19.0605 46.0469
rfemur 21.5363 10.0094 25.7737
rtibia 7.95139e-014
rfoot -13.1921 -8.03836
rtoes 11.4774
lfemur -32.3867 -19.4547 -13.3464
ltibia 28.8163
lfoot -5.06853 7.77147
ltoes 34.7603
5
root -2.46712 16.1585 -27.4768 3.22752 3.59444 0.912507
lowerback 12.4702 0.646602 -5.13002
upperback -4.63383 0.12586 1.32036
thorax -12.1556 0.525319 4.32826
lowerneck -7.03717 -6.26797 -4.83273
upperneck 16.0287 -8.54184 3.73297
head 6.39529 -4.14645 1.30726
rclavicle -6.96989e-015 -6.55989e-015
rhumerus -32.7195 -1.63682 -85.0648
rradius 22.1463
rwrist 12.2107
rhand -11.745 23.2683
rfingers 7.12502
rthumb 14.3027 -6.21907
lclavicle -6.96989e-015 -6.55989e-015
lhumerus -42.9121 5.96995 84.4345
lradius 21.7997
lwrist -0.616864
lhand -5.9906 18.1662
lfingers 7.12502
lthumb 19.8414 47.1734
rfemur 21.6329 10.1617 25.5034
rtibia 2.22639e-014
rfoot -12.5938 -8.07959
rtoes 10.8965
lfemur -32.3633 -18.7362 -13.8458
ltibia 29.1164
lfoot -4.90264 7.15736
ltoes 35.1288
6
root -2.42436 16.167 -27.3792 3.35197 3.18257 0.946175
lowerback 12.4899 0.897251 -5.11995
upperback -4.62417 0.454134 1.2285
thorax -12.194 0.676078 4.14575
lowerneck -7.53133 -6.43777 -4.60344
upperneck 16.1779 -8.77441 3.63271
head 6.52412 -4.24381 1.20028
rclavicle 2.87617e-015 1.39149e-015
rhumerus -32.9908 -2.09233 -85.1201
rradius 22.8693
rwrist 11.2038
rhand -10.5036 20.7717
rfingers 7.12502
rthumb 15.4986 -8.62712
lclavicle 2.87617e-015 1.39149e-015
lhumerus -42.6167 5.76605 84.4735
lradius 21.4639
lwrist -0.771771
lhand -4.97649 19.7159
lfingers 7.12502
lthumb 20.816 48.6193
rfemur 21.8147 10.6197 25.3159
rtibia -8.26944e-014
rfoot -11.9063 -8.11491
rtoes 9.69932
lfemur -32.1168 -17.8423 -14.2873
ltibia 29.3261
lfoot -4.87567 6.59859
ltoes 35.8839
7
root -2.38425 16.1784 -27.2813 3.43233 2.87333 1.00661
lowerback 12.5997 1.08576 -5.24784
upperback -4.69285 0.678007 1.22359
thorax -12.369 0.79851 4.16218
lowerneck -7.63462 -6.51413 -4.4318
upperneck 16.0974 -8.86306 3.44387
head 6.50361 -4.29011 1.10345
rclavicle -1.166e-014 -5.76476e-015
rhumerus -33.3768 -2.73908 -84.7343
rradius 22.6612
rwrist 11.8647
rhand -10.587 20.7674
rfingers 7.12502
rthumb 15.4183 -8.63761
lclavicle -1.166e-014 -5.76476e-015
lhumerus -42.5948 5.74689 84.5798
lradius 21.1563
lwrist -1.14031
lhand -4.6434 21.1052
lfingers 7.12502
lthumb 21.136 49.9731
rfemur 22.0235 10.9675 25.1199
rtibia -4.45278e-014
rfoot -11.1268 -8.18178
rtoes 8.264
lfemur -31.871 -17.0104 -14.76
ltibia 29.6117
lfoot -4.77981 6.04486
ltoes 36.6878
8
root -2.34526 16.1853 -27.1777 3.42822 2.66154 1.03401
lowerback 12.0273 1.07659 -5.14795
upperback -4.43494 0.710397 1.1486
thorax -11.7274 0.777802 4.01306
lowerneck -7.52834 -6.44064 -4.32949
upperneck 15.6753 -8.76695 3.46951
head 6.34317 -4.24087 1.11362
rclavicle -7.14382e-017 -1.21259e-014
rhumerus -33.3371 -3.11029 -84.6983
rradius 22.4686
rwrist 12.3298
rhand -10.6656 20.5299
rfingers 7.12502
rthumb 15.3427 -8.88089
lclavicle -7.14382e-017 -1.21259e-014
lhumerus -42.3326 5.46472 84.7715
lradius 21.1804
lwrist -0.924289
lhand -4.63904 22.1312
lfingers 7.12502
lthumb 21.1402 50.9986
rfemur 19.6325 11.1915 25.0593
rtibia 4.83983
rfoot -12.4004 -7.84243
rtoes 7.46402
lfemur -31.5623 -16.3785 -15.1902
ltibia 29.9035
lfoot -4.7115 5.57086
ltoes 37.895
9
root -2.29738 16.1868 -27.0586 3.29035 2.57286 1.03234
lowerback 10.309 0.896275 -4.53092
upperback -3.55834 0.639176 0.870187
thorax -9.69349 0.617993 3.37291
lowerneck -7.53864 -6.34889 -4.43768
upperneck 15.0247 -8.6893 4.02959
head 6.16548 -4.17274 1.32133
rclavicle 3.27917e-015 4.37326e-015
rhumerus -32.3594 -4.07143 -84.8278
rradius 22.0479
rwrist 12.8813
rhand -10.2807 20.385
rfingers 7.12502
rthumb 15.7134 -8.99706
lclavicle 3.27917e-015 4.37326e-015
lhumerus -41.2691 5.28638 84.5845
lradius 20.9577
lwrist -0.886553
lhand -4.65849 21.8362
lfingers 7.12502
lthumb 21.1215 50.7057
rfemur 18.5177 11.3057 24.9808
rtibia 7.81834
rfoot -12.9288 -7.59128
rtoes 7.41176
lfemur -31.066 -16.0317 -15.6291
ltibia 30.1416
lfoot -4.66963 5.19549
ltoes 38.0237
